<?xml version="1.0" encoding="UTF-8"?>
<svg width="163.34mm" height="120.02mm" version="1.1" viewBox="0 0 163.34 120.02" xmlns="http://www.w3.org/2000/svg">
<defs>
<filter id="e" x="-.38518" y="-1.6129" width="1.7704" height="4.2257" color-interpolation-filters="sRGB">
<feGaussianBlur stdDeviation="5.3880853"/>
</filter>
<filter id="c" x="-.50043" y="-.07113" width="2.001" height="1.16" color-interpolation-filters="sRGB">
<feGaussianBlur stdDeviation="1.0941794"/>
</filter>
<filter id="b" x="-.50043" y="-.07113" width="2.001" height="1.16" color-interpolation-filters="sRGB">
<feGaussianBlur stdDeviation="1.0941794"/>
</filter>
<filter id="a" x="-.50043" y="-.07113" width="2.001" height="1.16" color-interpolation-filters="sRGB">
<feGaussianBlur stdDeviation="1.0941794"/>
</filter>
<filter id="d" x="-.38518" y="-1.6129" width="1.7704" height="4.2257" color-interpolation-filters="sRGB">
<feGaussianBlur stdDeviation="5.3880853"/>
</filter>
</defs>
<g transform="translate(-24.102 -135.67)">
<g transform="matrix(.89878 0 0 .89878 34.172 51.101)">
<path transform="matrix(1.6412 0 0 1.6412 -78.062 -109.37)" d="m138.53 165.3a17.458 8.0177 0 0 1-14.033 7.8619 17.458 8.0177 0 0 1-19.539-4.7776l16.114-3.0843z" fill="#b0b0b0" filter="url(#e)"/>
<ellipse cx="112.62" cy="163.55" rx="14.531" ry="4.5795" fill="#4c4985" stroke="#373560" stroke-width=".91302"/>
<path d="m141.32 133.44c-7.6964 22.123-13.061 31.081-29.172 31.081-16.111 0-24.041-13.75-27.568-31.818-3.2312-16.55 12.74-19.283 28.851-19.283 16.111 0 33.368 4.2714 27.889 20.02z" fill="#4c4985"/>
<path d="m113.43 113.79c-16.111 0-32.082 2.7328-28.851 19.283 3.5275 18.068 11.458 31.818 27.569 31.818 1.0824 0 2.1147-0.0421 3.1041-0.12418-14.905-0.9929-22.374-14.376-25.767-31.756-2.9548-15.134 10.149-18.713 24.733-19.214-0.26245-3e-3 -0.52546-7e-3 -0.78742-7e-3z" fill="#373560"/>
<ellipse cx="113.67" cy="124.38" rx="26.844" ry="10.96" fill="#373560"/>
<path d="m132.03 139.12c0 7.2738-2.0864 3.2762-8.6584 11.696-9.3899 12.03-27.858 0.0143-27.899-7.6401-0.03936-7.2737 5.197-17.226 16.355-17.226 11.158 0 20.203 5.8966 20.203 13.17z" fill="#615dac" stroke-width=".33165"/>
<path d="m138.63 126.37c-0.41761 5.6869-10.724 8.7106-22.122 9.5014-12.043 0.83559-27.659-3.5442-25.929-6.2633 3.1229-4.9085 8.339-5.1386 12.802-6.8419 7.7942-2.9747 35.869-4.8323 35.249 3.6038z" fill="#633e30" stroke-width="1.1276"/>
<path d="m90.28 118.35a27.966 11.421 0 0 0-5.2949 6.6772 27.966 11.421 0 0 0 27.967 11.421 27.966 11.421 0 0 0 27.966-11.421 27.966 11.421 0 0 0-3.2558-5.348 26.844 10.96 0 0 1 2.2884 4.4273 26.844 10.96 0 0 1-26.844 10.96 26.844 10.96 0 0 1-26.844-10.96 26.844 10.96 0 0 1 4.0174-5.7565z" fill="#8885bf"/>
<path d="m81.854 104.58a10.152 7.5077 0 0 1 5.1472-9.8306 10.152 7.5077 0 0 1 13.365 3.6663 10.152 7.5077 0 0 1-4.7675 9.9348 10.152 7.5077 0 0 1-13.501-3.3841" fill="#638e72" stroke-width="3.2693"/>
<path d="m128.08 105.4a10.152 7.5077 0 0 1 5.1472-9.8306 10.152 7.5077 0 0 1 13.365 3.6663 10.152 7.5077 0 0 1-4.7675 9.9348 10.152 7.5077 0 0 1-13.501-3.3841" fill="#638e72" stroke-width="3.2693"/>
<path d="m135.1 110.89c-2.9958-1.8302-23.545 17.158-19.74 19.613" fill="none" stroke="#638e72" stroke-width="2.5079"/>
<path d="m98.531 105.22c3.3982-0.88117 17.547 23.256 13.193 24.5" fill="none" stroke="#638e72" stroke-width="2.5079"/>
<path d="m128.98 104.68c-3.5447-0.91915-18.303 24.259-13.761 25.557" fill="none" stroke="#638e72" stroke-width="2.616"/>
<path d="m117.21 105.2c-3.4601-0.89722-9.2019 26.784-4.7686 28.05" fill="none" stroke="#638e72" stroke-width="2.5536"/>
<path d="m127.98 99.702a10.152 7.5077 0 0 0 0.21239 5.5671l0.24443 0.38603a10.152 7.5077 0 0 0 13.501 3.3843 10.152 7.5077 0 0 0 5.6327-5.763 10.152 7.5077 0 0 1-5.1036 4.1755 10.152 7.5077 0 0 1-13.501-3.3843l-0.24443-0.38603a10.152 7.5077 0 0 1-0.74156-3.9796z" fill="#417352" stroke-width="3.2693"/>
<path d="m120.67 117.57a10.152 7.5077 0 0 1 5.1472-9.8306 10.152 7.5077 0 0 1 13.365 3.6663 10.152 7.5077 0 0 1-4.7675 9.9348 10.152 7.5077 0 0 1-13.501-3.3841" fill="#638e72" stroke-width="3.2693"/>
<path d="m119.95 112.9a10.152 7.5077 0 0 0 0.21239 5.5671l0.24443 0.38603a10.152 7.5077 0 0 0 13.501 3.3843 10.152 7.5077 0 0 0 5.6327-5.763 10.152 7.5077 0 0 1-5.1036 4.1755 10.152 7.5077 0 0 1-13.501-3.3843l-0.24443-0.38604a10.152 7.5077 0 0 1-0.74156-3.9796z" fill="#417352" stroke-width="3.2693"/>
<path d="m81.555 99.196a10.152 7.5077 0 0 0 0.21239 5.5671l0.24443 0.38603a10.152 7.5077 0 0 0 13.501 3.3843 10.152 7.5077 0 0 0 5.6327-5.763 10.152 7.5077 0 0 1-5.1036 4.1755 10.152 7.5077 0 0 1-13.501-3.3843l-0.24443-0.38603a10.152 7.5077 0 0 1-0.74156-3.9796z" fill="#417352" stroke-width="3.2693"/>
<path d="m90.035 117.96a10.152 7.5077 0 0 1 5.1472-9.8306 10.152 7.5077 0 0 1 13.365 3.6663 10.152 7.5077 0 0 1-4.7675 9.9348 10.152 7.5077 0 0 1-13.501-3.3841" fill="#638e72" stroke-width="3.2693"/>
<path d="m104.35 105.4a10.152 7.5077 0 0 1 5.1472-9.8306 10.152 7.5077 0 0 1 13.365 3.6663 10.152 7.5077 0 0 1-4.7675 9.9348 10.152 7.5077 0 0 1-13.501-3.3841" fill="#638e72" stroke-width="3.2693"/>
<path d="m88.401 116.93c2.4004-2.5617 27.263 10.27 24.249 13.65" fill="none" stroke="#638e72" stroke-width="2.5079"/>
<path d="m110.56 134.37a10.152 7.5077 0 0 1 5.1472-9.8306 10.152 7.5077 0 0 1 13.365 3.6663 10.152 7.5077 0 0 1-4.7675 9.9348 10.152 7.5077 0 0 1-13.501-3.3841" fill="#638e72" stroke-width="3.2693"/>
<path d="m89.831 113.02a10.152 7.5077 0 0 0 0.21239 5.5671l0.24443 0.38603a10.152 7.5077 0 0 0 13.501 3.3843 10.152 7.5077 0 0 0 5.6327-5.763 10.152 7.5077 0 0 1-5.1036 4.1755 10.152 7.5077 0 0 1-13.501-3.3843l-0.24443-0.38603a10.152 7.5077 0 0 1-0.74156-3.9796z" fill="#417352" stroke-width="3.2693"/>
<path d="m78.106 126.08a10.152 7.5077 0 0 1 5.1472-9.8306 10.152 7.5077 0 0 1 13.365 3.6663 10.152 7.5077 0 0 1-4.7675 9.9348 10.152 7.5077 0 0 1-13.501-3.3841" fill="#638e72" stroke-width="3.2693"/>
<path d="m131.79 128.15a10.152 7.5077 0 0 1 5.1472-9.8306 10.152 7.5077 0 0 1 13.365 3.6663 10.152 7.5077 0 0 1-4.7675 9.9348 10.152 7.5077 0 0 1-13.501-3.3841" fill="#638e72" stroke-width="3.2693"/>
<path d="m88.332 127.35c1.2484-3.2811 29.121-0.84746 27.615 3.4231" fill="none" stroke="#638e72" stroke-width="2.5079"/>
<path d="m103.91 99.998a10.152 7.5077 0 0 0 0.21239 5.5671l0.24443 0.38603a10.152 7.5077 0 0 0 13.501 3.3843 10.152 7.5077 0 0 0 5.6327-5.763 10.152 7.5077 0 0 1-5.1036 4.1755 10.152 7.5077 0 0 1-13.501-3.3843l-0.24443-0.38603a10.152 7.5077 0 0 1-0.74156-3.9796z" fill="#417352" stroke-width="3.2693"/>
<path d="m77.934 121.04a10.152 7.5077 0 0 0 0.21239 5.5671l0.24443 0.38603a10.152 7.5077 0 0 0 13.501 3.3843 10.152 7.5077 0 0 0 5.6327-5.763 10.152 7.5077 0 0 1-5.1036 4.1755 10.152 7.5077 0 0 1-13.501-3.3843l-0.24443-0.38603a10.152 7.5077 0 0 1-0.74156-3.9796z" fill="#417352" stroke-width="3.2693"/>
<path d="m131.47 122.98a10.152 7.5077 0 0 0 0.21239 5.5671l0.24443 0.38603a10.152 7.5077 0 0 0 13.501 3.3843 10.152 7.5077 0 0 0 5.6327-5.763 10.152 7.5077 0 0 1-5.1036 4.1755 10.152 7.5077 0 0 1-13.501-3.3843l-0.24443-0.38603a10.152 7.5077 0 0 1-0.74156-3.9796z" fill="#417352" stroke-width="3.2693"/>
<path d="m110.14 129.72a10.152 7.5077 0 0 0 0.21239 5.5671l0.24443 0.38603a10.152 7.5077 0 0 0 13.501 3.3843 10.152 7.5077 0 0 0 5.6327-5.763 10.152 7.5077 0 0 1-5.1036 4.1755 10.152 7.5077 0 0 1-13.501-3.3843l-0.24443-0.38603a10.152 7.5077 0 0 1-0.74156-3.9796z" fill="#417352" stroke-width="3.2693"/>
<path d="m89.877 103.1a4.0088 1.8751 0 0 1 2.0325-2.4553 4.0088 1.8751 0 0 1 5.2775 0.9157 4.0088 1.8751 0 0 1-1.8826 2.4813 4.0088 1.8751 0 0 1-5.331-0.84522" fill="#417352" fill-rule="evenodd"/>
<path d="m110.25 104.59a4.0088 1.8751 0 0 1 2.0324-2.4553 4.0088 1.8751 0 0 1 5.2775 0.9157 4.0088 1.8751 0 0 1-1.8826 2.4813 4.0088 1.8751 0 0 1-5.331-0.84522" fill="#417352" fill-rule="evenodd"/>
<path d="m131.72 101.87a4.0088 1.8751 0 0 1 2.0325-2.4553 4.0088 1.8751 0 0 1 5.2775 0.9157 4.0088 1.8751 0 0 1-1.8826 2.4813 4.0088 1.8751 0 0 1-5.331-0.84522" fill="#417352" fill-rule="evenodd"/>
<path d="m123.44 115.45a4.0088 1.8751 0 0 1 2.0324-2.4553 4.0088 1.8751 0 0 1 5.2775 0.9157 4.0088 1.8751 0 0 1-1.8826 2.4813 4.0088 1.8751 0 0 1-5.331-0.84522" fill="#417352" fill-rule="evenodd"/>
<path d="m134.69 123.73a4.0088 1.8751 0 0 1 2.0325-2.4553 4.0088 1.8751 0 0 1 5.2775 0.9157 4.0088 1.8751 0 0 1-1.8826 2.4813 4.0088 1.8751 0 0 1-5.331-0.84522" fill="#417352" fill-rule="evenodd"/>
<path transform="rotate(-22.587)" d="m56.431 164.18a4.0088 1.8751 0 0 1 2.0325-2.4553 4.0088 1.8751 0 0 1 5.2775 0.9157 4.0088 1.8751 0 0 1-1.8826 2.4813 4.0088 1.8751 0 0 1-5.331-0.84522" fill="#417352" fill-rule="evenodd"/>
<path d="m98.353 115.97a4.0088 1.8751 0 0 1 2.0325-2.4553 4.0088 1.8751 0 0 1 5.2775 0.9157 4.0088 1.8751 0 0 1-1.8826 2.4813 4.0088 1.8751 0 0 1-5.331-0.84522" fill="#417352" fill-rule="evenodd"/>
<path d="m86.476 123.87a4.0088 1.8751 0 0 1 2.0325-2.4553 4.0088 1.8751 0 0 1 5.2775 0.9157 4.0088 1.8751 0 0 1-1.8826 2.4813 4.0088 1.8751 0 0 1-5.331-0.84522" fill="#417352" fill-rule="evenodd"/>
</g>
<g transform="translate(5.1727)">
<path transform="matrix(1.6412 0 0 1.6412 -132.11 -49.989)" d="m138.53 165.3a17.458 8.0177 0 0 1-14.033 7.8619 17.458 8.0177 0 0 1-19.539-4.7776l16.114-3.0843z" fill="#b0b0b0" filter="url(#d)"/>
<ellipse cx="55.017" cy="221.67" rx="15.154" ry="4.1538" fill="#e2cecd" stroke="#c5a6a5" stroke-width=".88797"/>
<path d="m84.95 194.36c-8.0259 20.067-13.62 28.192-30.421 28.192-16.801 0-25.07-12.472-28.749-28.861-3.3695-15.012 13.285-17.491 30.086-17.491 16.801 0 34.797 3.8744 29.083 18.159z" fill="#e2cecd"/>
<path d="m55.867 176.53c-16.801 0-33.456 2.4788-30.087 17.49 3.6785 16.388 11.948 28.861 28.749 28.861 1.1288 0 2.2052-0.0382 3.237-0.11266-15.543-0.90059-23.332-13.039-26.87-28.804-3.0813-13.728 10.584-16.973 25.792-17.428-0.2737-2e-3 -0.54796-6e-3 -0.82114-6e-3z" fill="#c5a6a5"/>
<ellipse cx="56.118" cy="186.13" rx="27.993" ry="9.9416" fill="#c5a6a5"/>
<path d="m75.263 199.5c0 6.5977-2.1758 2.9716-9.0291 10.608-9.7919 10.911-29.051 0.0129-29.094-6.9299-0.041-6.5976 5.4195-15.625 17.055-15.625 11.636 0 21.068 5.3485 21.068 11.946z" fill="#eadddc" stroke-width=".32255"/>
<path d="m80.483 188.81c-0.43858 4.6765-11.263 7.1629-23.232 7.8132-12.648 0.68713-23.669-1.8617-21.853-4.0977 3.2796-4.0364 9.9097-6.4814 14.597-7.882 8.1853-2.4461 31.138-2.7706 30.488 4.1666z" fill="#e2cecd" stroke-width="1.0479"/>
<path d="m81.254 188.81c-0.80659 5.6448-13.298 6.6744-24.711 6.6817-12.06 8e-3 -27.688-2.6894-25.777-5.2835 3.4493-4.6828 9.2121-6.0177 13.777-7.4109 7.972-2.4331 37.908-2.361 36.711 6.0126z" fill="#633e30" stroke-width="1.127"/>
<path d="m31.723 180.66a29.164 10.36 0 0 0-5.5216 6.0565 29.164 10.36 0 0 0 29.164 10.36 29.164 10.36 0 0 0 29.164-10.36 29.164 10.36 0 0 0-3.3951-4.8508 27.993 9.9416 0 0 1 2.3864 4.0158 27.993 9.9416 0 0 1-27.993 9.9415 27.993 9.9416 0 0 1-27.994-9.9415 27.993 9.9416 0 0 1 4.1894-5.2214z" fill="#f8e0e0"/>
<path d="m29.565 205.11c4.6742 3.2116 7.3866 5.9879 11.376 3.7227 2.6039-4.4381 7.0182-6.9858 9.6221-4.5351 3.0994 5.9732 5.4835 7.0048 9.2333 7.1252 0.88361 0.53016 5.2511-2.4432 7.2773-4.169 5.1021-4.3455 11.754-4.0375 12.408-1.6266" fill="none" stroke="#b59191" stroke-width=".865"/>
<path transform="matrix(.557 0 0 .557 -1.2319 72.558)" d="m81.47 150.01c1.7246 5.1482-7.4151 11.229-6.6271 17.378 0.84517 6.596 10.908 9.63 11.579 16.246 0.64616 6.3794-7.7965 17.585-7.7965 17.585" fill="none" filter="url(#c)" stroke="#eee3e3" stroke-opacity=".54251" stroke-width="6.4004"/>
<path transform="matrix(.55617 -.030449 .030449 .55617 8.8729 62.054)" d="m81.47 150.01c1.7246 5.1482-7.4151 11.229-6.6271 17.378 0.84517 6.596 10.908 9.63 11.579 16.246 0.64616 6.3794-7.7965 17.585-7.7965 17.585" fill="none" filter="url(#b)" stroke="#eee3e3" stroke-opacity=".54251" stroke-width="6.4004"/>
<path transform="matrix(-.55617 -.030449 -.030449 .55617 120.07 76.313)" d="m81.47 150.01c1.7246 5.1482-7.4151 11.229-6.6271 17.378 0.84517 6.596 10.908 9.63 11.579 16.246 0.64616 6.3794-7.7965 17.585-7.7965 17.585" fill="none" filter="url(#a)" stroke="#eee3e3" stroke-opacity=".54251" stroke-width="6.4004"/>
</g>
</g>
</svg>
