<?xml version="1.0" encoding="UTF-8"?>
<svg width="210mm" height="297mm" version="1.1" viewBox="0 0 210 297" xmlns="http://www.w3.org/2000/svg">
<defs>
<clipPath id="a">
<path d="m146.16 193.24c3.3292-1.0675 8.1246-1.8335 14.114 0.33434 20.139 7.2894 39.783 11.583 39.783 29.997 0 18.414-57.424 24.507-51.583 41.14 4.6176 13.148-87.159 36.926-95.535-25.422-4.3303-32.232 26.128-25.437 58.85-20.096 9.8783 1.6124 19.169-2.0485 22.997-12.706 2.0593-5.7343 3.6845-10.781 11.375-13.247z" display="none" fill="#fff"/>
<path class="powerclip" d="m21.708 136.16h148.21v101.42h-148.21zm124.45 57.086c-7.6904 2.4659-9.3157 7.5124-11.375 13.247-3.8274 10.658-13.118 14.319-22.997 12.706-32.722-5.3412-63.18-12.136-58.85 20.096 8.3763 62.348 100.15 38.57 95.535 25.422-5.8413-16.633 51.583-22.726 51.583-41.14 0-18.414-19.644-22.708-39.783-29.997-5.9893-2.1678-10.785-1.4018-14.114-0.33434z" fill="#fff"/>
</clipPath>
</defs>
<path d="m78.031-52.48a67.719 33.441 0 0 0-0.38137 0.77256 67.719 33.441 0 0 0-0.78548 2.25 67.719 33.441 0 0 0-0.47284 2.2717 67.719 33.441 0 0 0-0.15813 2.282 67.719 33.441 0 0 0 0.15813 2.282 67.719 33.441 0 0 0 0.47284 2.2717 67.719 33.441 0 0 0 0.78548 2.25 67.719 33.441 0 0 0 1.095 2.2185 67.719 33.441 0 0 0 1.3989 2.1766 67.719 33.441 0 0 0 1.696 2.1244 67.719 33.441 0 0 0 1.9859 2.0619 67.719 33.441 0 0 0 2.2665 1.9906 67.719 33.441 0 0 0 2.5358 1.9094 67.719 33.441 0 0 0 2.7941 1.819 67.719 33.441 0 0 0 3.0391 1.7213 67.719 33.441 0 0 0 3.2696 1.6144 67.719 33.441 0 0 0 3.4851 1.5007 67.719 33.441 0 0 0 3.6845 1.3798 67.719 33.441 0 0 0 3.8664 1.2526 67.719 33.441 0 0 0 4.0302 1.1193 67.719 33.441 0 0 0 4.176 0.9803 67.719 33.441 0 0 0 4.3016 0.83767 67.719 33.441 0 0 0 4.4075 0.69092 67.719 33.441 0 0 0 4.4922 0.54054 67.719 33.441 0 0 0 4.5568 0.38809 67.719 33.441 0 0 0 4.5997 0.23358 67.719 33.441 0 0 0 4.6214 0.07803 67.719 33.441 0 0 0 4.6209-0.07803 67.719 33.441 0 0 0 4.5997-0.23358 67.719 33.441 0 0 0 4.5568-0.38809 67.719 33.441 0 0 0 4.4928-0.54054 67.719 33.441 0 0 0 4.407-0.69092 67.719 33.441 0 0 0 4.3021-0.83767 67.719 33.441 0 0 0 4.1754-0.9803 67.719 33.441 0 0 0 4.0308-1.1193 67.719 33.441 0 0 0 3.8664-1.2526 67.719 33.441 0 0 0 3.6845-1.3798 67.719 33.441 0 0 0 3.4851-1.5007 67.719 33.441 0 0 0 3.2696-1.6144 67.719 33.441 0 0 0 3.0386-1.7213 67.719 33.441 0 0 0 2.7942-1.819 67.719 33.441 0 0 0 2.5363-1.9094 67.719 33.441 0 0 0 2.266-1.9906 67.719 33.441 0 0 0 1.9859-2.0619 67.719 33.441 0 0 0 1.6965-2.1244 67.719 33.441 0 0 0 1.3989-2.1766 67.719 33.441 0 0 0 1.0945-2.2185 67.719 33.441 0 0 0 0.78548-2.25 67.719 33.441 0 0 0 0.47336-2.2717 67.719 33.441 0 0 0 0.15761-2.282 67.719 33.441 0 0 0-0.0186-0.78393 67.719 33.441 0 0 0-0.0558-0.78342 67.719 33.441 0 0 0-0.0444-0.37414 70.552 35.831 0 0 0-4.2948-6.3836l-0.24133-0.26872a70.552 35.831 0 0 0-93.481-17.562 70.552 35.831 0 0 0-35.503 18.58z" fill="#d8ab8e"/>
<path d="m88.581-51.271a59.128 28.809 0 0 0-0.33299 0.66556 59.128 28.809 0 0 0-0.68584 1.9384 59.128 28.809 0 0 0-0.41286 1.957 59.128 28.809 0 0 0-0.13807 1.9659 59.128 28.809 0 0 0 0.13807 1.966 59.128 28.809 0 0 0 0.41286 1.957 59.128 28.809 0 0 0 0.68584 1.9384 59.128 28.809 0 0 0 0.95611 1.9112 59.128 28.809 0 0 0 1.2214 1.8751 59.128 28.809 0 0 0 1.4809 1.8302 59.128 28.809 0 0 0 1.734 1.7763 59.128 28.809 0 0 0 1.979 1.7149 59.128 28.809 0 0 0 2.2141 1.645 59.128 28.809 0 0 0 2.4397 1.5671 59.128 28.809 0 0 0 2.6536 1.4829 59.128 28.809 0 0 0 2.8548 1.3908 59.128 28.809 0 0 0 3.043 1.2928 59.128 28.809 0 0 0 3.2171 1.1887 59.128 28.809 0 0 0 3.376 1.0791 59.128 28.809 0 0 0 3.519 0.96428 59.128 28.809 0 0 0 3.6462 0.84452 59.128 28.809 0 0 0 3.7559 0.72164 59.128 28.809 0 0 0 3.8484 0.59522 59.128 28.809 0 0 0 3.9224 0.46567 59.128 28.809 0 0 0 3.9788 0.33433 59.128 28.809 0 0 0 4.0162 0.20123 59.128 28.809 0 0 0 4.0352 0.0672 59.128 28.809 0 0 0 4.0347-0.0672 59.128 28.809 0 0 0 4.0162-0.20123 59.128 28.809 0 0 0 3.9788-0.33433 59.128 28.809 0 0 0 3.9228-0.46567 59.128 28.809 0 0 0 3.8479-0.59522 59.128 28.809 0 0 0 3.7563-0.72164 59.128 28.809 0 0 0 3.6458-0.84452 59.128 28.809 0 0 0 3.5194-0.96428 59.128 28.809 0 0 0 3.3759-1.0791 59.128 28.809 0 0 0 3.2171-1.1887 59.128 28.809 0 0 0 3.043-1.2928 59.128 28.809 0 0 0 2.8548-1.3908 59.128 28.809 0 0 0 2.6531-1.4829 59.128 28.809 0 0 0 2.4397-1.5671 59.128 28.809 0 0 0 2.2146-1.645 59.128 28.809 0 0 0 1.9786-1.7149 59.128 28.809 0 0 0 1.734-1.7763 59.128 28.809 0 0 0 1.4813-1.8302 59.128 28.809 0 0 0 1.2214-1.8751 59.128 28.809 0 0 0 0.95566-1.9112 59.128 28.809 0 0 0 0.68584-1.9384 59.128 28.809 0 0 0 0.41331-1.957 59.128 28.809 0 0 0 0.13761-1.966 59.128 28.809 0 0 0-0.0162-0.67534 59.128 28.809 0 0 0-0.0488-0.6749 59.128 28.809 0 0 0-0.0388-0.32233 61.602 30.868 0 0 0-3.75-5.4994l-0.21072-0.23148a61.602 30.868 0 0 0-81.622-15.13 61.602 30.868 0 0 0-30.999 16.006z" fill="#c19071"/>
<path d="m90.466-51.425a27.926 56.643 89.67 0 0-0.31527 0.64698 27.926 56.643 89.67 0 0-0.64615 1.8827 27.926 56.643 89.67 0 0-0.38454 1.8993 27.926 56.643 89.67 0 0-0.12126 1.9064 27.926 56.643 89.67 0 0 0.14327 1.9049 27.926 56.643 89.67 0 0 0.40646 1.8947 27.926 56.643 89.67 0 0 0.66786 1.8751 27.926 56.643 89.67 0 0 0.92662 1.8473 27.926 56.643 89.67 0 0 1.1806 1.8109 27.926 56.643 89.67 0 0 1.4289 1.7659 27.926 56.643 89.67 0 0 1.671 1.7122 27.926 56.643 89.67 0 0 1.9054 1.6513 27.926 56.643 89.67 0 0 2.1302 1.5823 27.926 56.643 89.67 0 0 2.3459 1.5055 27.926 56.643 89.67 0 0 2.5503 1.4228 27.926 56.643 89.67 0 0 2.7426 1.3324 27.926 56.643 89.67 0 0 2.9223 1.2364 27.926 56.643 89.67 0 0 3.0885 1.1344 27.926 56.643 89.67 0 0 3.2401 1.0274 27.926 56.643 89.67 0 0 3.3764 0.91529 27.926 56.643 89.67 0 0 3.4977 0.7985 27.926 56.643 89.67 0 0 3.602 0.6788 27.926 56.643 89.67 0 0 3.6899 0.55573 27.926 56.643 89.67 0 0 3.7601 0.42975 27.926 56.643 89.67 0 0 3.8134 0.30214 27.926 56.643 89.67 0 0 3.8485 0.1729 27.926 56.643 89.67 0 0 3.8659 0.0431 27.926 56.643 89.67 0 0 3.8647-0.0874 27.926 56.643 89.67 0 0 3.8462-0.2172 27.926 56.643 89.67 0 0 3.8096-0.34602 27.926 56.643 89.67 0 0 3.7553-0.47302 27.926 56.643 89.67 0 0 3.6828-0.59817 27.926 56.643 89.67 0 0 3.5944-0.72024 27.926 56.643 89.67 0 0 3.4878-0.83872 27.926 56.643 89.67 0 0 3.3661-0.9541 27.926 56.643 89.67 0 0 3.228-1.0646 27.926 56.643 89.67 0 0 3.0752-1.1699 27.926 56.643 89.67 0 0 2.9078-1.2699 27.926 56.643 89.67 0 0 2.727-1.3638 27.926 56.643 89.67 0 0 2.5333-1.4521 27.926 56.643 89.67 0 0 2.3284-1.5324 27.926 56.643 89.67 0 0 2.1122-1.6067 27.926 56.643 89.67 0 0 1.8858-1.6732 27.926 56.643 89.67 0 0 1.6512-1.7314 27.926 56.643 89.67 0 0 1.4088-1.7822 27.926 56.643 89.67 0 0 1.1596-1.8243 27.926 56.643 89.67 0 0 0.90479-1.8578 27.926 56.643 89.67 0 0 0.64616-1.8827 27.926 56.643 89.67 0 0 0.38498-1.8993 27.926 56.643 89.67 0 0 0.12082-1.9064 27.926 56.643 89.67 0 0-0.0192-0.65455 27.926 56.643 89.67 0 0-0.0504-0.65392 27.926 56.643 89.67 0 0-0.039-0.31221 29.922 59.013 89.671 0 0-3.6231-5.31l-0.20313-0.22324a29.922 59.013 89.671 0 0-78.276-14.216 29.922 59.013 89.671 0 0-29.607 15.686z" fill="#d8ab8e"/>
<path d="m97.664-51.294a48.594 24.166 0 0 0-0.27367 0.55828 48.594 24.166 0 0 0-0.56365 1.6259 48.594 24.166 0 0 0-0.33931 1.6416 48.594 24.166 0 0 0-0.11347 1.649 48.594 24.166 0 0 0 0.11347 1.6491 48.594 24.166 0 0 0 0.33931 1.6416 48.594 24.166 0 0 0 0.56365 1.6259 48.594 24.166 0 0 0 0.78578 1.6031 48.594 24.166 0 0 0 1.0038 1.5729 48.594 24.166 0 0 0 1.217 1.5352 48.594 24.166 0 0 0 1.4251 1.49 48.594 24.166 0 0 0 1.6264 1.4384 48.594 24.166 0 0 0 1.8196 1.3798 48.594 24.166 0 0 0 2.005 1.3145 48.594 24.166 0 0 0 2.1808 1.2439 48.594 24.166 0 0 0 2.3462 1.1666 48.594 24.166 0 0 0 2.5008 1.0844 48.594 24.166 0 0 0 2.644 0.99706 48.594 24.166 0 0 0 2.7745 0.90519 48.594 24.166 0 0 0 2.8921 0.80885 48.594 24.166 0 0 0 2.9966 0.7084 48.594 24.166 0 0 0 3.0868 0.60532 48.594 24.166 0 0 0 3.1628 0.49927 48.594 24.166 0 0 0 3.2236 0.39061 48.594 24.166 0 0 0 3.2699 0.28044 48.594 24.166 0 0 0 3.3007 0.1688 48.594 24.166 0 0 0 3.3163 0.0564 48.594 24.166 0 0 0 3.3159-0.0564 48.594 24.166 0 0 0 3.3007-0.1688 48.594 24.166 0 0 0 3.2699-0.28044 48.594 24.166 0 0 0 3.2239-0.39061 48.594 24.166 0 0 0 3.1624-0.49927 48.594 24.166 0 0 0 3.0871-0.60532 48.594 24.166 0 0 0 2.9963-0.7084 48.594 24.166 0 0 0 2.8924-0.80885 48.594 24.166 0 0 0 2.7745-0.90519 48.594 24.166 0 0 0 2.644-0.99706 48.594 24.166 0 0 0 2.5008-1.0844 48.594 24.166 0 0 0 2.3462-1.1666 48.594 24.166 0 0 0 2.1804-1.2439 48.594 24.166 0 0 0 2.005-1.3145 48.594 24.166 0 0 0 1.82-1.3798 48.594 24.166 0 0 0 1.6261-1.4384 48.594 24.166 0 0 0 1.4251-1.49 48.594 24.166 0 0 0 1.2174-1.5352 48.594 24.166 0 0 0 1.0038-1.5729 48.594 24.166 0 0 0 0.78541-1.6031 48.594 24.166 0 0 0 0.56365-1.6259 48.594 24.166 0 0 0 0.33969-1.6416 48.594 24.166 0 0 0 0.11309-1.6491 48.594 24.166 0 0 0-0.0133-0.56648 48.594 24.166 0 0 0-0.0401-0.56611 48.594 24.166 0 0 0-0.0318-0.27038 50.627 25.893 0 0 0-3.0819-4.613l-0.17317-0.19417a50.627 25.893 0 0 0-67.081-12.691 50.627 25.893 0 0 0-25.477 13.426z" fill="#c19071"/>
<path d="m96.665-52.763a25.312 48.189 89.633 0 0-0.26821 0.58642 25.312 48.189 89.633 0 0-0.54971 1.7065 25.312 48.189 89.633 0 0-0.32715 1.7215 25.312 48.189 89.633 0 0-0.10316 1.728 25.312 48.189 89.633 0 0 0.12189 1.7266 25.312 48.189 89.633 0 0 0.3458 1.7174 25.312 48.189 89.633 0 0 0.56818 1.6996 25.312 48.189 89.633 0 0 0.78832 1.6744 25.312 48.189 89.633 0 0 1.0044 1.6414 25.312 48.189 89.633 0 0 1.2156 1.6006 25.312 48.189 89.633 0 0 1.4216 1.552 25.312 48.189 89.633 0 0 1.621 1.4968 25.312 48.189 89.633 0 0 1.8123 1.4342 25.312 48.189 89.633 0 0 1.9958 1.3646 25.312 48.189 89.633 0 0 2.1697 1.2896 25.312 48.189 89.633 0 0 2.3332 1.2076 25.312 48.189 89.633 0 0 2.4861 1.1207 25.312 48.189 89.633 0 0 2.6276 1.0283 25.312 48.189 89.633 0 0 2.7565 0.93124 25.312 48.189 89.633 0 0 2.8725 0.82962 25.312 48.189 89.633 0 0 2.9756 0.72375 25.312 48.189 89.633 0 0 3.0644 0.61527 25.312 48.189 89.633 0 0 3.1392 0.50371 25.312 48.189 89.633 0 0 3.1989 0.38954 25.312 48.189 89.633 0 0 3.2442 0.27384 25.312 48.189 89.633 0 0 3.2741 0.15673 25.312 48.189 89.633 0 0 3.2889 0.0391 25.312 48.189 89.633 0 0 3.2879-0.0793 25.312 48.189 89.633 0 0 3.2722-0.19687 25.312 48.189 89.633 0 0 3.241-0.31364 25.312 48.189 89.633 0 0 3.1948-0.42874 25.312 48.189 89.633 0 0 3.1332-0.54218 25.312 48.189 89.633 0 0 3.0579-0.65282 25.312 48.189 89.633 0 0 2.9672-0.76023 25.312 48.189 89.633 0 0 2.8637-0.86478 25.312 48.189 89.633 0 0 2.7462-0.96501 25.312 48.189 89.633 0 0 2.6162-1.0604 25.312 48.189 89.633 0 0 2.4738-1.1511 25.312 48.189 89.633 0 0 2.32-1.2362 25.312 48.189 89.633 0 0 2.1552-1.3161 25.312 48.189 89.633 0 0 1.9808-1.389 25.312 48.189 89.633 0 0 1.797-1.4563 25.312 48.189 89.633 0 0 1.6043-1.5166 25.312 48.189 89.633 0 0 1.4047-1.5693 25.312 48.189 89.633 0 0 1.1985-1.6154 25.312 48.189 89.633 0 0 0.98651-1.6536 25.312 48.189 89.633 0 0 0.76976-1.6839 25.312 48.189 89.633 0 0 0.5497-1.7065 25.312 48.189 89.633 0 0 0.32752-1.7215 25.312 48.189 89.633 0 0 0.10285-1.728 25.312 48.189 89.633 0 0-0.0162-0.59328 25.312 48.189 89.633 0 0-0.0429-0.59271 25.312 48.189 89.633 0 0-0.0332-0.28298 27.121 50.205 89.632 0 0-3.0824-4.813l-0.17282-0.20235a27.121 50.205 89.632 0 0-66.593-12.885 27.121 50.205 89.632 0 0-25.188 14.218z" fill="#d8ab8e"/>
<ellipse cx="142.4" cy="-46.803" rx="42.304" ry="20.891" fill="#f4d3bd"/>
<ellipse cx="141.28" cy="-47.79" rx="35.783" ry="17.67" fill="#d8ab8e"/>
<ellipse cx="142.11" cy="-48.359" rx="33.275" ry="16.432" fill="#f4d3bd"/>
<path d="m78.031-52.48c-7.7338 9.2467-2.7871 24.734 2.4022 29.195 16.149 17.978 56.234 25.588 91.665 17.424 30.788-7.0955 43.323-25.289 39.453-40.984 0.0162 0.12467 0.031 0.24939 0.0444 0.37414 0.0248 0.26102 0.0434 0.52218 0.0558 0.78342 0.0124 0.26126 0.0186 0.52259 0.0186 0.78393 8e-5 0.76134-0.0525 1.5225-0.15761 2.282-0.10537 0.75967-0.26325 1.5173-0.47336 2.2717-0.20989 0.75419-0.47187 1.5046-0.78548 2.25-0.31359 0.74543-0.67864 1.4853-1.0945 2.2185-0.41598 0.73319-0.88254 1.4592-1.3989 2.1766-0.51637 0.71747-1.0822 1.426-1.6965 2.1244-0.61425 0.69826-1.2766 1.386-1.9859 2.0619-0.70923 0.67607-1.465 1.34-2.266 1.9906-0.80116 0.65055-1.6471 1.2874-2.5363 1.9094-0.88919 0.62187-1.8211 1.2286-2.7942 1.819-0.97288 0.5907-1.9863 1.1648-3.0386 1.7213-1.0523 0.55635-2.1428 1.0948-3.2696 1.6144-1.1268 0.51967-2.2891 1.0202-3.4851 1.5007-1.196 0.4805-2.4249 0.94069-3.6845 1.3798-1.2596 0.43916-2.5491 0.85695-3.8664 1.2526-1.3174 0.39566-2.6618 0.76898-4.0308 1.1193-1.3688 0.35014-2.7614 0.6771-4.1755 0.9803-1.4143 0.30333-2.8491 0.58272-4.3021 0.83767-1.4526 0.25501-2.9225 0.48545-4.407 0.69092-1.4847 0.20538-2.9832 0.38567-4.4928 0.54054-1.5096 0.15494-3.0294 0.28438-4.5568 0.38809-1.5274 0.10369-3.0615 0.1816-4.5997 0.23358-1.538 0.05198-3.0793 0.078-4.6209 0.07803-1.5418-2.1e-5 -3.0832-0.02606-4.6214-0.07803-1.5381-0.05198-3.0722-0.12988-4.5997-0.23358-1.5274-0.10371-3.0473-0.23315-4.5568-0.38809-1.5094-0.15487-3.0077-0.33516-4.4922-0.54054-1.4847-0.20546-2.9547-0.4359-4.4075-0.69092-1.4527-0.25496-2.8874-0.53435-4.3015-0.83767-1.4142-0.3032-2.807-0.63016-4.176-0.9803-1.3688-0.35034-2.713-0.72366-4.0302-1.1193-1.3173-0.39569-2.6069-0.81348-3.8664-1.2526-1.2596-0.43907-2.4885-0.89926-3.6845-1.3798-1.1959-0.48049-2.3583-0.98101-3.4851-1.5007-1.1268-0.51959-2.2172-1.058-3.2696-1.6144-1.0524-0.55653-2.066-1.1306-3.0391-1.7213-0.97304-0.59046-1.905-1.1971-2.7941-1.819-0.88902-0.62204-1.7348-1.2589-2.5358-1.9094-0.80118-0.65059-1.5571-1.3145-2.2665-1.9906-0.70931-0.67593-1.3717-1.3636-1.9859-2.0619-0.61415-0.6984-1.1798-1.407-1.696-2.1244-0.51634-0.71746-0.9829-1.4434-1.3989-2.1766-0.41604-0.73312-0.78126-1.473-1.095-2.2185-0.31361-0.74536-0.57559-1.4958-0.78548-2.25-0.20994-0.75435-0.36764-1.512-0.47284-2.2717-0.1053-0.75957-0.15804-1.5207-0.15813-2.282 9.3e-5 -0.76134 0.05283-1.5225 0.15813-2.282 0.1052-0.75967 0.2629-1.5173 0.47284-2.2717 0.20989-0.7542 0.47187-1.5046 0.78548-2.25 0.12092-0.25826 0.24805-0.5158 0.38137-0.77256z" fill="#c19071"/>
<ellipse cx="140.54" cy="-48.772" rx="18.076" ry="8.9262" fill="#d8ab8e"/>
<ellipse cx="21.221" cy="-10.701" rx="15.154" ry="4.1538" fill="#c19071" stroke="#a8795c" stroke-width=".88797"/>
<path d="m51.154-38.011c-8.0259 20.067-13.62 28.192-30.421 28.192-16.801 0-25.07-12.472-28.749-28.861-3.3695-15.012 13.285-17.491 30.086-17.491 16.801 1e-6 34.797 3.8744 29.083 18.159z" fill="#c19071"/>
<path d="m22.071-55.836c-16.801 0-33.456 2.4788-30.087 17.49 3.6785 16.388 11.948 28.861 28.749 28.861 1.1288 0 2.2053-0.0382 3.237-0.11266-15.543-0.90059-23.332-13.039-26.87-28.804-3.0813-13.728 10.584-16.973 25.792-17.428-0.2737-0.0021-0.54796-0.0057-0.82114-0.0057z" fill="#a8795c"/>
<ellipse cx="22.322" cy="-46.233" rx="27.993" ry="9.9416" fill="#a8795c"/>
<path d="m41.467-32.865c0 6.5977-2.1758 2.9716-9.0291 10.608-9.7919 10.911-29.051 0.01295-29.094-6.93-0.04101-6.5975 5.4195-15.625 17.055-15.625 11.636 1e-6 21.068 5.3485 21.068 11.946z" fill="#d2a78b" stroke-width=".32255"/>
<path d="m46.688-43.561c-0.43858 4.6765-11.263 7.1629-23.232 7.8132-12.648 0.68714-23.669-1.8617-21.853-4.0977 3.2796-4.0364 9.9097-6.4814 14.597-7.882 8.1853-2.4461 31.138-2.7706 30.488 4.1666z" fill="#c19071" stroke-width="1.0479"/>
<path d="m-2.0727-51.704a29.164 10.36 0 0 0-5.5216 6.0565 29.164 10.36 0 0 0 29.164 10.36 29.164 10.36 0 0 0 29.164-10.36 29.164 10.36 0 0 0-3.3951-4.8509 27.993 9.9416 0 0 1 2.3864 4.0158 27.993 9.9416 0 0 1-27.993 9.9415 27.993 9.9416 0 0 1-27.994-9.9415 27.993 9.9416 0 0 1 4.1894-5.2214z" fill="#cfa589"/>
<g transform="translate(-8.0259 78.252)">
<path d="m44.737 67.804a67.719 33.441 0 0 0-0.38137 0.77256 67.719 33.441 0 0 0-0.78548 2.25 67.719 33.441 0 0 0-0.47284 2.2717 67.719 33.441 0 0 0-0.15813 2.282 67.719 33.441 0 0 0 0.15813 2.282 67.719 33.441 0 0 0 0.47284 2.2717 67.719 33.441 0 0 0 0.78548 2.25 67.719 33.441 0 0 0 1.095 2.2185 67.719 33.441 0 0 0 1.3989 2.1766 67.719 33.441 0 0 0 1.696 2.1244 67.719 33.441 0 0 0 1.9859 2.0619 67.719 33.441 0 0 0 2.2665 1.9906 67.719 33.441 0 0 0 2.5358 1.9094 67.719 33.441 0 0 0 2.7941 1.819 67.719 33.441 0 0 0 3.0391 1.7213 67.719 33.441 0 0 0 3.2696 1.6144 67.719 33.441 0 0 0 3.4851 1.5007 67.719 33.441 0 0 0 3.6845 1.3798 67.719 33.441 0 0 0 3.8664 1.2526 67.719 33.441 0 0 0 4.0302 1.1193 67.719 33.441 0 0 0 4.176 0.9803 67.719 33.441 0 0 0 4.3015 0.83768 67.719 33.441 0 0 0 4.4075 0.69091 67.719 33.441 0 0 0 4.4922 0.54054 67.719 33.441 0 0 0 4.5568 0.38809 67.719 33.441 0 0 0 4.5997 0.23357 67.719 33.441 0 0 0 4.6214 0.078 67.719 33.441 0 0 0 4.6209-0.078 67.719 33.441 0 0 0 4.5997-0.23357 67.719 33.441 0 0 0 4.5568-0.38809 67.719 33.441 0 0 0 4.4928-0.54054 67.719 33.441 0 0 0 4.407-0.69091 67.719 33.441 0 0 0 4.3021-0.83768 67.719 33.441 0 0 0 4.1754-0.9803 67.719 33.441 0 0 0 4.0308-1.1193 67.719 33.441 0 0 0 3.8664-1.2526 67.719 33.441 0 0 0 3.6845-1.3798 67.719 33.441 0 0 0 3.4851-1.5007 67.719 33.441 0 0 0 3.2696-1.6144 67.719 33.441 0 0 0 3.0386-1.7213 67.719 33.441 0 0 0 2.7942-1.819 67.719 33.441 0 0 0 2.5363-1.9094 67.719 33.441 0 0 0 2.266-1.9906 67.719 33.441 0 0 0 1.9859-2.0619 67.719 33.441 0 0 0 1.6965-2.1244 67.719 33.441 0 0 0 1.3989-2.1766 67.719 33.441 0 0 0 1.0945-2.2185 67.719 33.441 0 0 0 0.78548-2.25 67.719 33.441 0 0 0 0.47336-2.2717 67.719 33.441 0 0 0 0.15761-2.282 67.719 33.441 0 0 0-0.0186-0.78393 67.719 33.441 0 0 0-0.0558-0.78342 67.719 33.441 0 0 0-0.0444-0.37414 70.552 35.831 0 0 0-4.2948-6.3836l-0.24133-0.26872a70.552 35.831 0 0 0-93.481-17.562 70.552 35.831 0 0 0-35.503 18.58z" fill="#d8ab8e"/>
<path d="m55.287 69.013a59.128 28.809 0 0 0-0.33299 0.66556 59.128 28.809 0 0 0-0.68584 1.9384 59.128 28.809 0 0 0-0.41286 1.957 59.128 28.809 0 0 0-0.13807 1.9659 59.128 28.809 0 0 0 0.13807 1.966 59.128 28.809 0 0 0 0.41286 1.957 59.128 28.809 0 0 0 0.68584 1.9384 59.128 28.809 0 0 0 0.95611 1.9112 59.128 28.809 0 0 0 1.2214 1.8751 59.128 28.809 0 0 0 1.4809 1.8302 59.128 28.809 0 0 0 1.734 1.7763 59.128 28.809 0 0 0 1.979 1.7149 59.128 28.809 0 0 0 2.2141 1.645 59.128 28.809 0 0 0 2.4397 1.5671 59.128 28.809 0 0 0 2.6536 1.4829 59.128 28.809 0 0 0 2.8548 1.3908 59.128 28.809 0 0 0 3.043 1.2928 59.128 28.809 0 0 0 3.2171 1.1887 59.128 28.809 0 0 0 3.3759 1.0791 59.128 28.809 0 0 0 3.519 0.96428 59.128 28.809 0 0 0 3.6462 0.84452 59.128 28.809 0 0 0 3.7559 0.72164 59.128 28.809 0 0 0 3.8484 0.59522 59.128 28.809 0 0 0 3.9224 0.46567 59.128 28.809 0 0 0 3.9788 0.33433 59.128 28.809 0 0 0 4.0162 0.20123 59.128 28.809 0 0 0 4.0352 0.0672 59.128 28.809 0 0 0 4.0347-0.0672 59.128 28.809 0 0 0 4.0162-0.20123 59.128 28.809 0 0 0 3.9788-0.33433 59.128 28.809 0 0 0 3.9228-0.46567 59.128 28.809 0 0 0 3.8479-0.59522 59.128 28.809 0 0 0 3.7563-0.72164 59.128 28.809 0 0 0 3.6458-0.84452 59.128 28.809 0 0 0 3.5194-0.96428 59.128 28.809 0 0 0 3.3759-1.0791 59.128 28.809 0 0 0 3.2171-1.1887 59.128 28.809 0 0 0 3.043-1.2928 59.128 28.809 0 0 0 2.8548-1.3908 59.128 28.809 0 0 0 2.6531-1.4829 59.128 28.809 0 0 0 2.4397-1.5671 59.128 28.809 0 0 0 2.2146-1.645 59.128 28.809 0 0 0 1.9786-1.7149 59.128 28.809 0 0 0 1.734-1.7763 59.128 28.809 0 0 0 1.4813-1.8302 59.128 28.809 0 0 0 1.2214-1.8751 59.128 28.809 0 0 0 0.95566-1.9112 59.128 28.809 0 0 0 0.68584-1.9384 59.128 28.809 0 0 0 0.41331-1.957 59.128 28.809 0 0 0 0.13761-1.966 59.128 28.809 0 0 0-0.0162-0.67534 59.128 28.809 0 0 0-0.0488-0.6749 59.128 28.809 0 0 0-0.0388-0.32233 61.602 30.868 0 0 0-3.75-5.4994l-0.21072-0.23148a61.602 30.868 0 0 0-81.622-15.13 61.602 30.868 0 0 0-30.999 16.006z" fill="#c19071"/>
<path d="m57.172 68.86a27.926 56.643 89.67 0 0-0.31527 0.64698 27.926 56.643 89.67 0 0-0.64615 1.8827 27.926 56.643 89.67 0 0-0.38454 1.8993 27.926 56.643 89.67 0 0-0.12126 1.9064 27.926 56.643 89.67 0 0 0.14327 1.9049 27.926 56.643 89.67 0 0 0.40646 1.8947 27.926 56.643 89.67 0 0 0.66786 1.8751 27.926 56.643 89.67 0 0 0.92662 1.8473 27.926 56.643 89.67 0 0 1.1806 1.8109 27.926 56.643 89.67 0 0 1.4289 1.7659 27.926 56.643 89.67 0 0 1.671 1.7122 27.926 56.643 89.67 0 0 1.9054 1.6513 27.926 56.643 89.67 0 0 2.1302 1.5823 27.926 56.643 89.67 0 0 2.3459 1.5055 27.926 56.643 89.67 0 0 2.5503 1.4228 27.926 56.643 89.67 0 0 2.7426 1.3324 27.926 56.643 89.67 0 0 2.9223 1.2364 27.926 56.643 89.67 0 0 3.0885 1.1344 27.926 56.643 89.67 0 0 3.2401 1.0274 27.926 56.643 89.67 0 0 3.3764 0.91529 27.926 56.643 89.67 0 0 3.4977 0.7985 27.926 56.643 89.67 0 0 3.602 0.6788 27.926 56.643 89.67 0 0 3.6899 0.55573 27.926 56.643 89.67 0 0 3.7601 0.42975 27.926 56.643 89.67 0 0 3.8134 0.30214 27.926 56.643 89.67 0 0 3.8485 0.1729 27.926 56.643 89.67 0 0 3.8659 0.0431 27.926 56.643 89.67 0 0 3.8647-0.0874 27.926 56.643 89.67 0 0 3.8462-0.2172 27.926 56.643 89.67 0 0 3.8096-0.34602 27.926 56.643 89.67 0 0 3.7553-0.47302 27.926 56.643 89.67 0 0 3.6828-0.59817 27.926 56.643 89.67 0 0 3.5944-0.72024 27.926 56.643 89.67 0 0 3.4878-0.83872 27.926 56.643 89.67 0 0 3.3661-0.9541 27.926 56.643 89.67 0 0 3.228-1.0646 27.926 56.643 89.67 0 0 3.0752-1.1699 27.926 56.643 89.67 0 0 2.9078-1.2699 27.926 56.643 89.67 0 0 2.727-1.3638 27.926 56.643 89.67 0 0 2.5333-1.4521 27.926 56.643 89.67 0 0 2.3284-1.5324 27.926 56.643 89.67 0 0 2.1122-1.6067 27.926 56.643 89.67 0 0 1.8858-1.6732 27.926 56.643 89.67 0 0 1.6512-1.7314 27.926 56.643 89.67 0 0 1.4088-1.7822 27.926 56.643 89.67 0 0 1.1596-1.8243 27.926 56.643 89.67 0 0 0.90479-1.8578 27.926 56.643 89.67 0 0 0.64616-1.8827 27.926 56.643 89.67 0 0 0.38498-1.8993 27.926 56.643 89.67 0 0 0.12082-1.9064 27.926 56.643 89.67 0 0-0.0192-0.65455 27.926 56.643 89.67 0 0-0.0504-0.65392 27.926 56.643 89.67 0 0-0.039-0.31221 29.922 59.013 89.671 0 0-3.6231-5.31l-0.20313-0.22324a29.922 59.013 89.671 0 0-78.276-14.216 29.922 59.013 89.671 0 0-29.607 15.686z" fill="#d8ab8e"/>
<path d="m64.371 68.99a48.594 24.166 0 0 0-0.27367 0.55828 48.594 24.166 0 0 0-0.56365 1.6259 48.594 24.166 0 0 0-0.33931 1.6416 48.594 24.166 0 0 0-0.11347 1.649 48.594 24.166 0 0 0 0.11347 1.6491 48.594 24.166 0 0 0 0.33931 1.6416 48.594 24.166 0 0 0 0.56365 1.6259 48.594 24.166 0 0 0 0.78578 1.6031 48.594 24.166 0 0 0 1.0038 1.5729 48.594 24.166 0 0 0 1.217 1.5352 48.594 24.166 0 0 0 1.4251 1.49 48.594 24.166 0 0 0 1.6264 1.4384 48.594 24.166 0 0 0 1.8196 1.3798 48.594 24.166 0 0 0 2.005 1.3145 48.594 24.166 0 0 0 2.1808 1.2439 48.594 24.166 0 0 0 2.3462 1.1666 48.594 24.166 0 0 0 2.5008 1.0844 48.594 24.166 0 0 0 2.644 0.99706 48.594 24.166 0 0 0 2.7745 0.90519 48.594 24.166 0 0 0 2.8921 0.80885 48.594 24.166 0 0 0 2.9966 0.7084 48.594 24.166 0 0 0 3.0867 0.60532 48.594 24.166 0 0 0 3.1628 0.49927 48.594 24.166 0 0 0 3.2236 0.39061 48.594 24.166 0 0 0 3.2699 0.28044 48.594 24.166 0 0 0 3.3007 0.1688 48.594 24.166 0 0 0 3.3163 0.0564 48.594 24.166 0 0 0 3.3159-0.0564 48.594 24.166 0 0 0 3.3007-0.1688 48.594 24.166 0 0 0 3.2699-0.28044 48.594 24.166 0 0 0 3.2239-0.39061 48.594 24.166 0 0 0 3.1624-0.49927 48.594 24.166 0 0 0 3.0871-0.60532 48.594 24.166 0 0 0 2.9963-0.7084 48.594 24.166 0 0 0 2.8924-0.80885 48.594 24.166 0 0 0 2.7745-0.90519 48.594 24.166 0 0 0 2.644-0.99706 48.594 24.166 0 0 0 2.5008-1.0844 48.594 24.166 0 0 0 2.3462-1.1666 48.594 24.166 0 0 0 2.1804-1.2439 48.594 24.166 0 0 0 2.005-1.3145 48.594 24.166 0 0 0 1.82-1.3798 48.594 24.166 0 0 0 1.6261-1.4384 48.594 24.166 0 0 0 1.4251-1.49 48.594 24.166 0 0 0 1.2174-1.5352 48.594 24.166 0 0 0 1.0038-1.5729 48.594 24.166 0 0 0 0.78541-1.6031 48.594 24.166 0 0 0 0.56365-1.6259 48.594 24.166 0 0 0 0.33969-1.6416 48.594 24.166 0 0 0 0.11309-1.6491 48.594 24.166 0 0 0-0.0133-0.56648 48.594 24.166 0 0 0-0.0401-0.56611 48.594 24.166 0 0 0-0.0318-0.27038 50.627 25.893 0 0 0-3.0819-4.613l-0.17317-0.19417a50.627 25.893 0 0 0-67.081-12.691 50.627 25.893 0 0 0-25.477 13.426z" fill="#c19071"/>
<path d="m63.371 67.522a25.312 48.189 89.633 0 0-0.26821 0.58642 25.312 48.189 89.633 0 0-0.54971 1.7065 25.312 48.189 89.633 0 0-0.32715 1.7215 25.312 48.189 89.633 0 0-0.10316 1.728 25.312 48.189 89.633 0 0 0.12189 1.7266 25.312 48.189 89.633 0 0 0.3458 1.7174 25.312 48.189 89.633 0 0 0.56818 1.6996 25.312 48.189 89.633 0 0 0.78832 1.6744 25.312 48.189 89.633 0 0 1.0044 1.6414 25.312 48.189 89.633 0 0 1.2156 1.6006 25.312 48.189 89.633 0 0 1.4216 1.552 25.312 48.189 89.633 0 0 1.621 1.4968 25.312 48.189 89.633 0 0 1.8123 1.4342 25.312 48.189 89.633 0 0 1.9958 1.3646 25.312 48.189 89.633 0 0 2.1697 1.2896 25.312 48.189 89.633 0 0 2.3332 1.2076 25.312 48.189 89.633 0 0 2.4861 1.1207 25.312 48.189 89.633 0 0 2.6276 1.0283 25.312 48.189 89.633 0 0 2.7565 0.93124 25.312 48.189 89.633 0 0 2.8725 0.82962 25.312 48.189 89.633 0 0 2.9756 0.72375 25.312 48.189 89.633 0 0 3.0644 0.61527 25.312 48.189 89.633 0 0 3.1392 0.50371 25.312 48.189 89.633 0 0 3.1989 0.38954 25.312 48.189 89.633 0 0 3.2442 0.27384 25.312 48.189 89.633 0 0 3.2741 0.15673 25.312 48.189 89.633 0 0 3.2889 0.0391 25.312 48.189 89.633 0 0 3.2879-0.0793 25.312 48.189 89.633 0 0 3.2722-0.19687 25.312 48.189 89.633 0 0 3.241-0.31364 25.312 48.189 89.633 0 0 3.1948-0.42874 25.312 48.189 89.633 0 0 3.1332-0.54218 25.312 48.189 89.633 0 0 3.0579-0.65282 25.312 48.189 89.633 0 0 2.9672-0.76023 25.312 48.189 89.633 0 0 2.8637-0.86478 25.312 48.189 89.633 0 0 2.7462-0.96501 25.312 48.189 89.633 0 0 2.6162-1.0604 25.312 48.189 89.633 0 0 2.4738-1.1511 25.312 48.189 89.633 0 0 2.32-1.2362 25.312 48.189 89.633 0 0 2.1552-1.3161 25.312 48.189 89.633 0 0 1.9808-1.389 25.312 48.189 89.633 0 0 1.797-1.4563 25.312 48.189 89.633 0 0 1.6043-1.5166 25.312 48.189 89.633 0 0 1.4047-1.5693 25.312 48.189 89.633 0 0 1.1985-1.6154 25.312 48.189 89.633 0 0 0.98651-1.6536 25.312 48.189 89.633 0 0 0.76976-1.6839 25.312 48.189 89.633 0 0 0.5497-1.7065 25.312 48.189 89.633 0 0 0.32752-1.7215 25.312 48.189 89.633 0 0 0.10285-1.728 25.312 48.189 89.633 0 0-0.0162-0.59328 25.312 48.189 89.633 0 0-0.0429-0.59271 25.312 48.189 89.633 0 0-0.0332-0.28298 27.121 50.205 89.632 0 0-3.0824-4.813l-0.17282-0.20235a27.121 50.205 89.632 0 0-66.593-12.885 27.121 50.205 89.632 0 0-25.188 14.218z" fill="#d8ab8e"/>
<ellipse cx="109.1" cy="73.482" rx="42.304" ry="20.891" fill="#f4d3bd"/>
<ellipse cx="107.98" cy="72.495" rx="35.783" ry="17.67" fill="#d8ab8e"/>
<ellipse cx="108.82" cy="71.925" rx="33.275" ry="16.432" fill="#f4d3bd"/>
<path d="m44.737 67.804c-7.7338 9.2467-2.7871 24.734 2.4022 29.195 16.149 17.978 56.234 25.588 91.665 17.424 30.788-7.0955 43.323-25.289 39.453-40.984 0.0162 0.12467 0.031 0.24939 0.0444 0.37414 0.0248 0.26102 0.0434 0.52218 0.0558 0.78342 0.0124 0.26126 0.0186 0.52259 0.0186 0.78393 8e-5 0.76134-0.0525 1.5225-0.15761 2.282-0.10537 0.75967-0.26325 1.5173-0.47336 2.2717-0.20989 0.75419-0.47187 1.5046-0.78548 2.25-0.31359 0.74543-0.67864 1.4853-1.0945 2.2185-0.41598 0.73319-0.88254 1.4592-1.3989 2.1766-0.51637 0.71747-1.0822 1.426-1.6965 2.1244-0.61425 0.69826-1.2766 1.386-1.9859 2.0619-0.70923 0.67607-1.465 1.34-2.266 1.9906-0.80116 0.65055-1.6471 1.2874-2.5363 1.9094-0.88919 0.62187-1.8211 1.2286-2.7942 1.819-0.97288 0.5907-1.9863 1.1648-3.0386 1.7213-1.0523 0.55635-2.1428 1.0948-3.2696 1.6144-1.1268 0.51967-2.2891 1.0202-3.4851 1.5007-1.196 0.4805-2.4249 0.94069-3.6845 1.3798-1.2596 0.43916-2.5491 0.85695-3.8664 1.2526-1.3174 0.39565-2.6618 0.76898-4.0308 1.1193-1.3688 0.35014-2.7614 0.6771-4.1755 0.9803-1.4143 0.30333-2.8491 0.58272-4.3021 0.83768-1.4526 0.25501-2.9225 0.48545-4.407 0.69091-1.4847 0.20538-2.9831 0.38567-4.4927 0.54054-1.5096 0.15494-3.0294 0.28438-4.5568 0.38809-1.5274 0.10369-3.0615 0.1816-4.5997 0.23357-1.5381 0.052-3.0793 0.078-4.6209 0.078-1.5418-2e-5 -3.0832-0.0261-4.6214-0.078-1.5382-0.052-3.0723-0.12988-4.5997-0.23357-1.5274-0.10371-3.0473-0.23315-4.5568-0.38809-1.5094-0.15488-3.0077-0.33516-4.4922-0.54054-1.4847-0.20546-2.9547-0.4359-4.4075-0.69091-1.4527-0.25497-2.8874-0.53435-4.3015-0.83768-1.4142-0.30319-2.807-0.63015-4.176-0.9803-1.3688-0.35034-2.713-0.72366-4.0302-1.1193-1.3173-0.39569-2.6069-0.81348-3.8664-1.2526-1.2596-0.43907-2.4885-0.89926-3.6845-1.3798-1.1959-0.48049-2.3583-0.98101-3.4851-1.5007-1.1267-0.51959-2.2172-1.058-3.2696-1.6144-1.0524-0.55653-2.066-1.1306-3.0391-1.7213-0.97304-0.59045-1.905-1.1971-2.7941-1.819-0.88902-0.62204-1.7348-1.2589-2.5358-1.9094-0.80118-0.65059-1.5571-1.3145-2.2665-1.9906-0.70931-0.67593-1.3717-1.3636-1.9859-2.0619-0.61415-0.6984-1.1798-1.407-1.696-2.1244-0.51634-0.71746-0.9829-1.4434-1.3989-2.1766-0.41604-0.73312-0.78126-1.473-1.095-2.2185-0.31361-0.74536-0.57559-1.4958-0.78548-2.25-0.20994-0.75435-0.36764-1.512-0.47284-2.2717-0.1053-0.75957-0.15804-1.5207-0.15813-2.282 9.2e-5 -0.76134 0.05283-1.5225 0.15813-2.282 0.1052-0.75967 0.2629-1.5173 0.47284-2.2717 0.20989-0.7542 0.47187-1.5046 0.78548-2.25 0.12092-0.25826 0.24805-0.5158 0.38137-0.77256z" fill="#c19071"/>
<ellipse cx="107.25" cy="71.513" rx="18.076" ry="8.9262" fill="#d8ab8e"/>
<ellipse cx="107.42" cy="71.088" rx="16.044" ry="7.923" fill="#b9825f"/>
<g transform="translate(52.303 12.845)">
<ellipse cx="55.846" cy="58.895" rx="15.154" ry="4.1538" fill="#c19071" stroke="#a8795c" stroke-width=".88797"/>
<path d="m85.779 31.585c-8.0259 20.067-13.62 28.192-30.421 28.192s-25.07-12.472-28.749-28.861c-3.3695-15.012 13.285-17.491 30.086-17.491 16.801 1e-6 34.797 3.8744 29.083 18.159z" fill="#c19071"/>
<path d="m56.696 13.76c-16.801 0-33.456 2.4788-30.087 17.49 3.6785 16.388 11.948 28.861 28.749 28.861 1.1288 0 2.2053-0.0382 3.237-0.11266-15.543-0.90059-23.332-13.039-26.87-28.804-3.0813-13.728 10.584-16.973 25.792-17.428-0.2737-0.0021-0.54796-0.0057-0.82114-0.0057z" fill="#a8795c"/>
<ellipse cx="56.947" cy="23.364" rx="27.993" ry="9.9416" fill="#a8795c"/>
<path d="m76.092 36.731c0 6.5977-2.1758 2.9716-9.0291 10.608-9.7919 10.911-29.051 0.01295-29.094-6.93-0.04101-6.5975 5.4195-15.625 17.055-15.625 11.636 1e-6 21.068 5.3485 21.068 11.946z" fill="#d2a78b" stroke-width=".32255"/>
<path d="m81.312 26.035c-0.43858 4.6765-11.263 7.1629-23.232 7.8132-12.648 0.68714-23.669-1.8617-21.853-4.0977 3.2796-4.0364 9.9097-6.4814 14.597-7.882 8.1853-2.4461 31.138-2.7706 30.488 4.1666z" fill="#c19071" stroke-width="1.0479"/>
<path d="m32.552 17.892a29.164 10.36 0 0 0-5.5216 6.0565 29.164 10.36 0 0 0 29.164 10.36 29.164 10.36 0 0 0 29.164-10.36 29.164 10.36 0 0 0-3.3951-4.8509 27.993 9.9416 0 0 1 2.3864 4.0158 27.993 9.9416 0 0 1-27.993 9.9415 27.993 9.9416 0 0 1-27.994-9.9415 27.993 9.9416 0 0 1 4.1894-5.2214z" fill="#cfa589"/>
</g>
</g>
<path d="m-102.67-132.46c1.8147 0.37306 2.9753 2.1343 2.6022 3.949l-4.175 20.309c-0.37306 1.8147-2.1343 2.9753-3.949 2.6022-1.8147-0.37305-2.9753-2.1343-2.6022-3.949l0.21679-12.776 3.9582-7.5329c0.86176-1.64 2.1343-2.9753 3.949-2.6022z" fill="#f4d0b9"/>
<rect transform="rotate(-48.476)" x="38.053" y="-171.9" width="28.833" height="24.84" ry="4.4358" fill="#f4d0b9"/>
<path d="m-97.625-142.58a6.7125 6.1023 0 0 0-6.7123 6.1025 6.7125 6.1023 0 0 0 1.6666 4.0184 12.875 11.704 0 0 0-0.97359 4.4504 12.875 11.704 0 0 0 12.875 11.705 12.875 11.704 0 0 0 12.875-11.705 12.875 11.704 0 0 0-12.875-11.704 12.875 11.704 0 0 0-1.1302 0.0496 6.7125 6.1023 0 0 0-5.7252-2.9166z" fill="#f4d0b9"/>
<rect transform="rotate(27.849)" x="-133.9" y="-71.741" width="6.6882" height="27.422" ry="3.3441" fill="#f4d0b9"/>
<path d="m-42.388-115.8c-3.3313 6.1483-3.8266 4.519-3.8267 11.26 2.9e-5 6.7411 0 0 3.8267 13.152 0.65257-3.6e-4 1.3032-0.0964 1.9404-0.28629l2.403 2.4112 11.859 3.5372c1.6273 0.88561 3.65 0.28884 4.5356-1.3384 0.82158-1.5096 0.49859-3.6845-0.97514-4.3951 0.61744-0.2926 1.1513-0.77704 1.5043-1.4258 0.88561-1.6273 0.44395-4.0307-1.3384-4.5362l-0.50023-0.14159c0.31497-0.26315 0.58866-0.58699 0.79738-0.97048 0.88561-1.6273 0.44343-4.0302-1.3389-4.5356l-10.027-2.8438c-0.15879-1.1069-0.43026-2.1787-0.80666-3.1848l1.3415-0.0341 8.9431 4.3413c1.8169 0.36216 3.5709-0.80878 3.9331-2.6257 0.36215-1.8169-0.98705-3.0687-2.6257-3.9331l-7.9592-4.1987-9.5208 0.11162c-0.70822-0.23914-1.4353-0.3613-2.1652-0.3638z" fill="#f4d0b9" stroke-width=".8"/>
<path d="m-33.274-110-1.3415 0.0341c0.13334 0.35642 0.25301 0.72142 0.35967 1.093l0.97617-0.0248 8.9431 4.3413c1.8169 0.36216 3.5709-0.80878 3.9331-2.6257 0.079-0.39646 0.0764-0.76603 7e-3 -1.1105-5.5e-4 3e-3 -9.9e-4 5e-3 -2e-3 8e-3 -0.36217 1.8169-2.1162 2.9878-3.9331 2.6257zm-13.221 4.6173c-0.0037 0.33549-0.0057 0.68912-0.0057 1.0769 2.9e-5 6.7411-3.7e-5 -1.8e-4 3.8266 13.152 0.65257-3.6e-4 1.3032-0.0964 1.9404-0.28629l2.403 2.4112 11.859 3.5372c1.6272 0.88561 3.65 0.28884 4.5356-1.3384 0.37996-0.69815 0.51488-1.5384 0.40462-2.3104-0.0632 0.4219-0.19604 0.83537-0.39894 1.2082-0.88562 1.6273-2.9084 2.224-4.5356 1.3384l-11.859-3.5372-2.403-2.4112c-0.63727 0.18989-1.2879 0.28593-1.9405 0.28629-3.8212-13.133-3.8266-6.433-3.8266-13.126zm24.451 4.7703c-0.0632 0.42286-0.19569 0.83731-0.39894 1.2108-0.20871 0.38349-0.4824 0.70733-0.79737 0.97048l0.50023 0.14159c0.0825 0.0234 0.16098 0.0525 0.23771 0.0837 0.0182-0.031 0.0365-0.0618 0.0537-0.0935 0.38026-0.69871 0.51496-1.5399 0.40464-2.313zm1.0413 5.6482c-0.0633 0.42291-0.19569 0.83731-0.39894 1.2108-0.35305 0.64871-0.88687 1.1332-1.5043 1.4258 0.30037 0.14482 0.55226 0.351 0.75708 0.59945 0.29141-0.2544 0.54523-0.5622 0.74155-0.92294 0.3802-0.6986 0.51474-1.5399 0.40463-2.313z" fill="#c19071" stroke-width=".8"/>
<path d="m9.9668-110.6c-4e-5 6.7411-0.69428 15.668-5.6808 15.669-0.65257-3.6e-4 3.0402-2.2213 2.403-2.4112l-2.403 2.4112-11.859 3.5372c-1.6273 0.88562-3.65 0.28884-4.5356-1.3384-0.82158-1.5096-0.49858-3.6846 0.97512-4.3951-0.61742-0.29259-1.1512-0.77704-1.5043-1.4257-0.88559-1.6273-0.44394-4.0307 1.3384-4.5361l0.50023-0.14161c-0.31496-0.26314-0.58866-0.58698-0.79737-0.97048-0.88561-1.6273-0.44344-4.0302 1.3389-4.5356l10.027-2.8438c0.15879-1.1069 0.43026-2.1787 0.80667-3.1848l-1.3415-0.0341-8.9431 4.3413c-1.8169 0.36216-3.5709-0.80878-3.9331-2.6257-0.36216-1.8169 0.98704-3.0687 2.6257-3.9331l7.9592-4.1987 9.5209 0.11163c3.8114 9.8877 3.08 4.931 3.5027 10.505z" fill="#f4d0b9" stroke-width=".8"/>
<path d="m7.5711-120.93c-0.15611-5e-3 -0.23056 0.0852-0.24288 0.25683 0.0998 0.27727 0.21594 0.58764 0.34003 0.91674 1.4995 0.41636 0.45489 0.32493 0 0l1.1689-0.50281c-0.63402-0.45287-1.037-0.66352-1.2661-0.67076zm-8.5142 5.8389-8.9431 4.3413c-1.4875 0.29648-2.932-0.4351-3.606-1.7069 1.6e-4 0.18712 0.0184 0.3807 0.0584 0.58136 0.3405 1.7082 1.9114 2.8452 3.608 2.6743l0.54209-0.154 8.7261-4.2359 0.49144 0.0124c0.1308-0.50547 0.28537-0.99946 0.46457-1.4785zm10.297 0.60978c0.2608 1.1669 0.43511 2.3827 0.43511 3.59-4e-5 6.7411-0.69424 15.669-5.6808 15.669l-11.859 3.5373c-1.6273 0.88561-3.65 0.28883-4.5356-1.3384-0.018-0.0331-0.0343-0.0671-0.0512-0.10077 0.0262 0.55509 0.17109 1.113 0.43666 1.6009 0.88562 1.6272 2.9084 2.224 4.5356 1.3384l11.859-3.5372c4.9865-1.8e-4 4.4984-8.4548 4.4985-15.196-1e-5 -1.7364 0.36171-5.5631 0.36171-5.5631zm-21.18 9.8872c0.0201 0.42252 0.10915 0.84623 0.26769 1.2397 0.0271-9e-3 0.0534-0.0185 0.0811-0.0264l0.50023-0.14159c-0.31496-0.26314-0.58866-0.58698-0.79737-0.97048-0.0181-0.0332-0.0347-0.0674-0.0517-0.10129zm-1.0413 5.6482c0.0265 0.55541 0.17164 1.1135 0.43719 1.6014 0.10419 0.19143 0.22597 0.36653 0.35915 0.52865 0.20531-0.24999 0.4579-0.45758 0.75964-0.60307-0.61742-0.29259-1.1512-0.77705-1.5043-1.4258-0.0181-0.0332-0.0347-0.0674-0.0517-0.10128zm19.378 1.3121-1.4759 1.481c0.83598-0.63405 1.8332-1.3746 1.4759-1.481zm0.3855 1.5002c0.35728 0.10646-0.6399 0.847-1.4759 1.481z" fill="#c19071" stroke-width=".8"/>
<rect transform="rotate(19.18)" x="-128.71" y="-89.064" width="6.6882" height="27.422" ry="3.3441" fill="#f4d0b9"/>
<rect transform="rotate(11.617)" x="-122.92" y="-104.88" width="6.6882" height="27.422" ry="3.3441" fill="#f4d0b9"/>
<g transform="translate(44.811 -311.67)" clip-path="url(#a)">
<path d="m30.715 182.69c-7.7338 9.2467-2.7871 24.734 2.4022 29.195 16.149 17.978 56.234 25.588 91.665 17.424 30.788-7.0955 43.323-25.289 39.453-40.984 0.0162 0.12467 0.031 0.24938 0.0444 0.37414 0.0248 0.26102 0.0434 0.52217 0.0558 0.78341 0.0124 0.26127 0.0186 0.52259 0.0186 0.78393 8e-5 0.76134-0.0525 1.5225-0.15761 2.282-0.10537 0.75967-0.26325 1.5174-0.47336 2.2717-0.20989 0.75419-0.47187 1.5046-0.78548 2.25-0.31359 0.74543-0.67864 1.4854-1.0945 2.2185-0.41597 0.73319-0.88254 1.4592-1.3989 2.1766-0.51637 0.71747-1.0822 1.426-1.6965 2.1244-0.61426 0.69826-1.2766 1.386-1.9859 2.0619-0.70923 0.67607-1.465 1.34-2.266 1.9906-0.80116 0.65055-1.6471 1.2874-2.5363 1.9094-0.88919 0.62186-1.8211 1.2286-2.7942 1.819-0.97288 0.59069-1.9863 1.1648-3.0386 1.7213-1.0523 0.55635-2.1428 1.0948-3.2696 1.6144-1.1268 0.51967-2.2891 1.0202-3.4851 1.5007-1.196 0.4805-2.4249 0.94068-3.6845 1.3798-1.2596 0.43916-2.5491 0.85695-3.8664 1.2526-1.3174 0.39565-2.6618 0.76897-4.0308 1.1193-1.3688 0.35014-2.7614 0.6771-4.1754 0.9803-1.4143 0.30333-2.8492 0.58272-4.3021 0.83767-1.4526 0.25501-2.9225 0.48545-4.407 0.69092-1.4847 0.20538-2.9831 0.38566-4.4928 0.54053-1.5096 0.15495-3.0294 0.28439-4.5568 0.38809-1.5274 0.1037-3.0615 0.1816-4.5997 0.23358-1.5381 0.052-3.0793 0.078-4.6209 0.078-1.5418-2e-5 -3.0832-0.0261-4.6214-0.078-1.5382-0.052-3.0723-0.12988-4.5997-0.23358-1.5274-0.1037-3.0473-0.23314-4.5568-0.38809-1.5094-0.15487-3.0077-0.33516-4.4922-0.54053-1.4847-0.20546-2.9547-0.4359-4.4075-0.69092-1.4527-0.25496-2.8874-0.53435-4.3016-0.83767-1.4142-0.3032-2.807-0.63016-4.176-0.9803-1.3688-0.35034-2.713-0.72366-4.0302-1.1193-1.3173-0.39569-2.6069-0.81348-3.8664-1.2526-1.2596-0.43908-2.4885-0.89926-3.6845-1.3798-1.1959-0.48049-2.3583-0.98101-3.4851-1.5007-1.1268-0.51959-2.2172-1.058-3.2696-1.6144-1.0524-0.55653-2.066-1.1306-3.0391-1.7213-0.97304-0.59046-1.905-1.1972-2.7942-1.819-0.88902-0.62204-1.7348-1.2589-2.5358-1.9094-0.80118-0.65059-1.5571-1.3145-2.2665-1.9906-0.70931-0.67593-1.3717-1.3636-1.9859-2.0619-0.61415-0.6984-1.1798-1.407-1.696-2.1244-0.51634-0.71746-0.9829-1.4434-1.3989-2.1766-0.41604-0.73312-0.78126-1.473-1.095-2.2185-0.31361-0.74536-0.57559-1.4958-0.78548-2.25-0.20994-0.75435-0.36764-1.512-0.47284-2.2717-0.1053-0.75956-0.15804-1.5207-0.15813-2.282 9e-5 -0.76134 0.0528-1.5225 0.15813-2.282 0.1052-0.75967 0.2629-1.5173 0.47284-2.2717 0.20989-0.7542 0.47187-1.5046 0.78548-2.25 0.12092-0.25825 0.24806-0.51579 0.38137-0.77256z" fill="#c19071"/>
<g transform="translate(-10.877 -58.17)">
<path d="m41.593 240.86a67.719 33.441 0 0 0-0.38137 0.77256 67.719 33.441 0 0 0-0.78548 2.25 67.719 33.441 0 0 0-0.47284 2.2717 67.719 33.441 0 0 0-0.15813 2.282 67.719 33.441 0 0 0 0.15813 2.282 67.719 33.441 0 0 0 0.47284 2.2717 67.719 33.441 0 0 0 0.78548 2.25 67.719 33.441 0 0 0 1.095 2.2185 67.719 33.441 0 0 0 1.3989 2.1766 67.719 33.441 0 0 0 1.696 2.1244 67.719 33.441 0 0 0 1.9859 2.0619 67.719 33.441 0 0 0 2.2665 1.9906 67.719 33.441 0 0 0 2.5358 1.9094 67.719 33.441 0 0 0 2.7941 1.819 67.719 33.441 0 0 0 3.0391 1.7213 67.719 33.441 0 0 0 3.2696 1.6144 67.719 33.441 0 0 0 3.4851 1.5007 67.719 33.441 0 0 0 3.6845 1.3798 67.719 33.441 0 0 0 3.8664 1.2526 67.719 33.441 0 0 0 4.0302 1.1193 67.719 33.441 0 0 0 4.176 0.9803 67.719 33.441 0 0 0 4.3015 0.83767 67.719 33.441 0 0 0 4.4075 0.69092 67.719 33.441 0 0 0 4.4922 0.54053 67.719 33.441 0 0 0 4.5568 0.38809 67.719 33.441 0 0 0 4.5997 0.23358 67.719 33.441 0 0 0 4.6214 0.078 67.719 33.441 0 0 0 4.6209-0.078 67.719 33.441 0 0 0 4.5997-0.23358 67.719 33.441 0 0 0 4.5568-0.38809 67.719 33.441 0 0 0 4.4928-0.54053 67.719 33.441 0 0 0 4.407-0.69092 67.719 33.441 0 0 0 4.3021-0.83767 67.719 33.441 0 0 0 4.1754-0.9803 67.719 33.441 0 0 0 4.0308-1.1193 67.719 33.441 0 0 0 3.8664-1.2526 67.719 33.441 0 0 0 3.6845-1.3798 67.719 33.441 0 0 0 3.4851-1.5007 67.719 33.441 0 0 0 3.2696-1.6144 67.719 33.441 0 0 0 3.0386-1.7213 67.719 33.441 0 0 0 2.7941-1.819 67.719 33.441 0 0 0 2.5363-1.9094 67.719 33.441 0 0 0 2.266-1.9906 67.719 33.441 0 0 0 1.9859-2.0619 67.719 33.441 0 0 0 1.6965-2.1244 67.719 33.441 0 0 0 1.3989-2.1766 67.719 33.441 0 0 0 1.0945-2.2185 67.719 33.441 0 0 0 0.78549-2.25 67.719 33.441 0 0 0 0.47335-2.2717 67.719 33.441 0 0 0 0.15761-2.282 67.719 33.441 0 0 0-0.0186-0.78393 67.719 33.441 0 0 0-0.0558-0.78341 67.719 33.441 0 0 0-0.0444-0.37414 70.552 35.831 0 0 0-4.2948-6.3836l-0.24133-0.26872a70.552 35.831 0 0 0-93.481-17.562 70.552 35.831 0 0 0-35.503 18.58z" fill="#d8ab8e"/>
<path d="m52.142 242.07a59.128 28.809 0 0 0-0.33299 0.66556 59.128 28.809 0 0 0-0.68584 1.9384 59.128 28.809 0 0 0-0.41285 1.957 59.128 28.809 0 0 0-0.13807 1.9659 59.128 28.809 0 0 0 0.13807 1.966 59.128 28.809 0 0 0 0.41285 1.957 59.128 28.809 0 0 0 0.68584 1.9384 59.128 28.809 0 0 0 0.95611 1.9112 59.128 28.809 0 0 0 1.2214 1.8751 59.128 28.809 0 0 0 1.4809 1.8302 59.128 28.809 0 0 0 1.734 1.7763 59.128 28.809 0 0 0 1.979 1.7149 59.128 28.809 0 0 0 2.2141 1.645 59.128 28.809 0 0 0 2.4397 1.5671 59.128 28.809 0 0 0 2.6536 1.4829 59.128 28.809 0 0 0 2.8548 1.3908 59.128 28.809 0 0 0 3.043 1.2928 59.128 28.809 0 0 0 3.2171 1.1887 59.128 28.809 0 0 0 3.3759 1.0791 59.128 28.809 0 0 0 3.519 0.96428 59.128 28.809 0 0 0 3.6462 0.84452 59.128 28.809 0 0 0 3.7559 0.72164 59.128 28.809 0 0 0 3.8484 0.59522 59.128 28.809 0 0 0 3.9224 0.46567 59.128 28.809 0 0 0 3.9788 0.33433 59.128 28.809 0 0 0 4.0162 0.20123 59.128 28.809 0 0 0 4.0352 0.0672 59.128 28.809 0 0 0 4.0347-0.0672 59.128 28.809 0 0 0 4.0162-0.20123 59.128 28.809 0 0 0 3.9788-0.33433 59.128 28.809 0 0 0 3.9228-0.46567 59.128 28.809 0 0 0 3.8479-0.59522 59.128 28.809 0 0 0 3.7563-0.72164 59.128 28.809 0 0 0 3.6458-0.84452 59.128 28.809 0 0 0 3.5194-0.96428 59.128 28.809 0 0 0 3.3759-1.0791 59.128 28.809 0 0 0 3.2171-1.1887 59.128 28.809 0 0 0 3.043-1.2928 59.128 28.809 0 0 0 2.8548-1.3908 59.128 28.809 0 0 0 2.6531-1.4829 59.128 28.809 0 0 0 2.4397-1.5671 59.128 28.809 0 0 0 2.2146-1.645 59.128 28.809 0 0 0 1.9786-1.7149 59.128 28.809 0 0 0 1.734-1.7763 59.128 28.809 0 0 0 1.4813-1.8302 59.128 28.809 0 0 0 1.2214-1.8751 59.128 28.809 0 0 0 0.95566-1.9112 59.128 28.809 0 0 0 0.68584-1.9384 59.128 28.809 0 0 0 0.41331-1.957 59.128 28.809 0 0 0 0.13761-1.966 59.128 28.809 0 0 0-0.0162-0.67534 59.128 28.809 0 0 0-0.0488-0.6749 59.128 28.809 0 0 0-0.0388-0.32233 61.602 30.868 0 0 0-3.75-5.4994l-0.21072-0.23148a61.602 30.868 0 0 0-81.622-15.13 61.602 30.868 0 0 0-30.999 16.006z" fill="#c19071"/>
<path d="m54.028 241.92a27.926 56.643 89.67 0 0-0.31526 0.64698 27.926 56.643 89.67 0 0-0.64616 1.8827 27.926 56.643 89.67 0 0-0.38454 1.8993 27.926 56.643 89.67 0 0-0.12126 1.9064 27.926 56.643 89.67 0 0 0.14328 1.9049 27.926 56.643 89.67 0 0 0.40646 1.8947 27.926 56.643 89.67 0 0 0.66785 1.8751 27.926 56.643 89.67 0 0 0.92662 1.8473 27.926 56.643 89.67 0 0 1.1806 1.8109 27.926 56.643 89.67 0 0 1.4289 1.7659 27.926 56.643 89.67 0 0 1.671 1.7122 27.926 56.643 89.67 0 0 1.9054 1.6513 27.926 56.643 89.67 0 0 2.1302 1.5823 27.926 56.643 89.67 0 0 2.3459 1.5055 27.926 56.643 89.67 0 0 2.5503 1.4228 27.926 56.643 89.67 0 0 2.7426 1.3324 27.926 56.643 89.67 0 0 2.9223 1.2364 27.926 56.643 89.67 0 0 3.0885 1.1344 27.926 56.643 89.67 0 0 3.2401 1.0274 27.926 56.643 89.67 0 0 3.3764 0.91529 27.926 56.643 89.67 0 0 3.4977 0.7985 27.926 56.643 89.67 0 0 3.602 0.6788 27.926 56.643 89.67 0 0 3.6899 0.55573 27.926 56.643 89.67 0 0 3.7601 0.42975 27.926 56.643 89.67 0 0 3.8134 0.30214 27.926 56.643 89.67 0 0 3.8485 0.1729 27.926 56.643 89.67 0 0 3.8659 0.0431 27.926 56.643 89.67 0 0 3.8647-0.0874 27.926 56.643 89.67 0 0 3.8462-0.2172 27.926 56.643 89.67 0 0 3.8096-0.34602 27.926 56.643 89.67 0 0 3.7553-0.47302 27.926 56.643 89.67 0 0 3.6828-0.59817 27.926 56.643 89.67 0 0 3.5944-0.72024 27.926 56.643 89.67 0 0 3.4878-0.83872 27.926 56.643 89.67 0 0 3.3661-0.9541 27.926 56.643 89.67 0 0 3.228-1.0646 27.926 56.643 89.67 0 0 3.0752-1.1699 27.926 56.643 89.67 0 0 2.9078-1.2699 27.926 56.643 89.67 0 0 2.727-1.3638 27.926 56.643 89.67 0 0 2.5333-1.4521 27.926 56.643 89.67 0 0 2.3284-1.5324 27.926 56.643 89.67 0 0 2.1122-1.6067 27.926 56.643 89.67 0 0 1.8858-1.6732 27.926 56.643 89.67 0 0 1.6512-1.7314 27.926 56.643 89.67 0 0 1.4088-1.7822 27.926 56.643 89.67 0 0 1.1596-1.8243 27.926 56.643 89.67 0 0 0.90479-1.8578 27.926 56.643 89.67 0 0 0.64616-1.8827 27.926 56.643 89.67 0 0 0.38498-1.8993 27.926 56.643 89.67 0 0 0.12082-1.9064 27.926 56.643 89.67 0 0-0.0192-0.65455 27.926 56.643 89.67 0 0-0.0504-0.65392 27.926 56.643 89.67 0 0-0.039-0.31221 29.922 59.013 89.671 0 0-3.6231-5.31l-0.20313-0.22324a29.922 59.013 89.671 0 0-78.276-14.216 29.922 59.013 89.671 0 0-29.607 15.686z" fill="#d8ab8e"/>
<path d="m61.226 242.05a48.594 24.166 0 0 0-0.27367 0.55828 48.594 24.166 0 0 0-0.56365 1.6259 48.594 24.166 0 0 0-0.33931 1.6416 48.594 24.166 0 0 0-0.11347 1.649 48.594 24.166 0 0 0 0.11347 1.6491 48.594 24.166 0 0 0 0.33931 1.6416 48.594 24.166 0 0 0 0.56365 1.6259 48.594 24.166 0 0 0 0.78578 1.6031 48.594 24.166 0 0 0 1.0038 1.5729 48.594 24.166 0 0 0 1.217 1.5352 48.594 24.166 0 0 0 1.4251 1.49 48.594 24.166 0 0 0 1.6264 1.4384 48.594 24.166 0 0 0 1.8196 1.3798 48.594 24.166 0 0 0 2.005 1.3145 48.594 24.166 0 0 0 2.1808 1.2439 48.594 24.166 0 0 0 2.3462 1.1666 48.594 24.166 0 0 0 2.5008 1.0844 48.594 24.166 0 0 0 2.644 0.99706 48.594 24.166 0 0 0 2.7745 0.90519 48.594 24.166 0 0 0 2.8921 0.80885 48.594 24.166 0 0 0 2.9966 0.7084 48.594 24.166 0 0 0 3.0867 0.60532 48.594 24.166 0 0 0 3.1628 0.49927 48.594 24.166 0 0 0 3.2236 0.39061 48.594 24.166 0 0 0 3.2699 0.28044 48.594 24.166 0 0 0 3.3007 0.1688 48.594 24.166 0 0 0 3.3163 0.0564 48.594 24.166 0 0 0 3.3159-0.0564 48.594 24.166 0 0 0 3.3007-0.1688 48.594 24.166 0 0 0 3.2699-0.28044 48.594 24.166 0 0 0 3.2239-0.39061 48.594 24.166 0 0 0 3.1624-0.49927 48.594 24.166 0 0 0 3.0871-0.60532 48.594 24.166 0 0 0 2.9963-0.7084 48.594 24.166 0 0 0 2.8924-0.80885 48.594 24.166 0 0 0 2.7745-0.90519 48.594 24.166 0 0 0 2.644-0.99706 48.594 24.166 0 0 0 2.5008-1.0844 48.594 24.166 0 0 0 2.3462-1.1666 48.594 24.166 0 0 0 2.1804-1.2439 48.594 24.166 0 0 0 2.005-1.3145 48.594 24.166 0 0 0 1.82-1.3798 48.594 24.166 0 0 0 1.6261-1.4384 48.594 24.166 0 0 0 1.4251-1.49 48.594 24.166 0 0 0 1.2174-1.5352 48.594 24.166 0 0 0 1.0038-1.5729 48.594 24.166 0 0 0 0.78541-1.6031 48.594 24.166 0 0 0 0.56365-1.6259 48.594 24.166 0 0 0 0.33969-1.6416 48.594 24.166 0 0 0 0.11309-1.6491 48.594 24.166 0 0 0-0.0133-0.56648 48.594 24.166 0 0 0-0.0401-0.56611 48.594 24.166 0 0 0-0.0318-0.27038 50.627 25.893 0 0 0-3.0819-4.613l-0.17317-0.19417a50.627 25.893 0 0 0-67.081-12.691 50.627 25.893 0 0 0-25.477 13.426z" fill="#c19071"/>
<path d="m60.227 240.58a25.312 48.189 89.633 0 0-0.26822 0.58642 25.312 48.189 89.633 0 0-0.54971 1.7065 25.312 48.189 89.633 0 0-0.32715 1.7215 25.312 48.189 89.633 0 0-0.10316 1.728 25.312 48.189 89.633 0 0 0.12189 1.7266 25.312 48.189 89.633 0 0 0.34579 1.7174 25.312 48.189 89.633 0 0 0.56818 1.6996 25.312 48.189 89.633 0 0 0.78833 1.6744 25.312 48.189 89.633 0 0 1.0044 1.6414 25.312 48.189 89.633 0 0 1.2156 1.6006 25.312 48.189 89.633 0 0 1.4216 1.552 25.312 48.189 89.633 0 0 1.621 1.4968 25.312 48.189 89.633 0 0 1.8123 1.4342 25.312 48.189 89.633 0 0 1.9958 1.3646 25.312 48.189 89.633 0 0 2.1697 1.2896 25.312 48.189 89.633 0 0 2.3332 1.2076 25.312 48.189 89.633 0 0 2.4861 1.1207 25.312 48.189 89.633 0 0 2.6276 1.0283 25.312 48.189 89.633 0 0 2.7565 0.93124 25.312 48.189 89.633 0 0 2.8725 0.82962 25.312 48.189 89.633 0 0 2.9756 0.72375 25.312 48.189 89.633 0 0 3.0644 0.61527 25.312 48.189 89.633 0 0 3.1392 0.50371 25.312 48.189 89.633 0 0 3.1989 0.38954 25.312 48.189 89.633 0 0 3.2442 0.27384 25.312 48.189 89.633 0 0 3.2741 0.15673 25.312 48.189 89.633 0 0 3.2889 0.0391 25.312 48.189 89.633 0 0 3.2879-0.0793 25.312 48.189 89.633 0 0 3.2722-0.19687 25.312 48.189 89.633 0 0 3.241-0.31364 25.312 48.189 89.633 0 0 3.1948-0.42874 25.312 48.189 89.633 0 0 3.1332-0.54218 25.312 48.189 89.633 0 0 3.0579-0.65282 25.312 48.189 89.633 0 0 2.9672-0.76023 25.312 48.189 89.633 0 0 2.8637-0.86478 25.312 48.189 89.633 0 0 2.7462-0.96501 25.312 48.189 89.633 0 0 2.6162-1.0604 25.312 48.189 89.633 0 0 2.4738-1.1511 25.312 48.189 89.633 0 0 2.32-1.2362 25.312 48.189 89.633 0 0 2.1552-1.3161 25.312 48.189 89.633 0 0 1.9808-1.389 25.312 48.189 89.633 0 0 1.797-1.4563 25.312 48.189 89.633 0 0 1.6043-1.5166 25.312 48.189 89.633 0 0 1.4047-1.5693 25.312 48.189 89.633 0 0 1.1985-1.6154 25.312 48.189 89.633 0 0 0.98651-1.6536 25.312 48.189 89.633 0 0 0.76976-1.6839 25.312 48.189 89.633 0 0 0.5497-1.7065 25.312 48.189 89.633 0 0 0.32752-1.7215 25.312 48.189 89.633 0 0 0.10285-1.728 25.312 48.189 89.633 0 0-0.0162-0.59328 25.312 48.189 89.633 0 0-0.0429-0.59271 25.312 48.189 89.633 0 0-0.0332-0.28298 27.121 50.205 89.632 0 0-3.0824-4.813l-0.17282-0.20235a27.121 50.205 89.632 0 0-66.593-12.885 27.121 50.205 89.632 0 0-25.188 14.218z" fill="#d8ab8e"/>
<path d="m148.26 246.54a42.304 20.891 0 0 1-42.304 20.891 42.304 20.891 0 0 1-42.304-20.891 42.304 20.891 0 0 1 42.304-20.891 42.304 20.891 0 0 1 42.304 20.891z" fill="#f4d3bd" stroke-width=".16528"/>
<path d="m140.62 245.55a35.783 17.67 0 0 1-35.783 17.67 35.783 17.67 0 0 1-35.783-17.67 35.783 17.67 0 0 1 35.783-17.67 35.783 17.67 0 0 1 35.783 17.67z" fill="#d8ab8e" stroke-width=".13981"/>
<path d="m138.95 244.98a33.275 16.432 0 0 1-33.275 16.432 33.275 16.432 0 0 1-33.275-16.432 33.275 16.432 0 0 1 33.275-16.432 33.275 16.432 0 0 1 33.275 16.432z" fill="#f4d3bd" stroke-width=".13001"/>
<path d="m122.18 244.57a18.076 8.9262 0 0 1-18.076 8.9262 18.076 8.9262 0 0 1-18.076-8.9262 18.076 8.9262 0 0 1 18.076-8.9262 18.076 8.9262 0 0 1 18.076 8.9262z" fill="#d8ab8e" stroke-width=".070623"/>
<path d="m120.32 244.15a16.044 7.923 0 0 1-16.044 7.923 16.044 7.923 0 0 1-16.044-7.923 16.044 7.923 0 0 1 16.044-7.923 16.044 7.923 0 0 1 16.044 7.923z" fill="#b9825f" stroke-width=".062686"/>
<g transform="translate(49.159 185.9)">
<path d="m71 58.895a15.154 4.1538 0 0 1-15.154 4.1538 15.154 4.1538 0 0 1-15.154-4.1538 15.154 4.1538 0 0 1 15.154-4.1538 15.154 4.1538 0 0 1 15.154 4.1538z" fill="#c19071" stroke="#a8795c" stroke-width=".88797"/>
<path d="m85.779 31.585c-8.0259 20.067-13.62 28.192-30.421 28.192s-25.07-12.472-28.749-28.861c-3.3695-15.012 13.285-17.491 30.086-17.491 16.801 1e-6 34.797 3.8744 29.083 18.159z" fill="#c19071"/>
<path d="m56.696 13.76c-16.801 0-33.456 2.4788-30.087 17.49 3.6785 16.388 11.948 28.861 28.749 28.861 1.1288 0 2.2053-0.0382 3.237-0.11266-15.543-0.90059-23.332-13.039-26.87-28.804-3.0813-13.728 10.584-16.973 25.792-17.428-0.2737-0.0021-0.54796-0.0057-0.82114-0.0057z" fill="#a8795c"/>
<path d="m84.94 23.364a27.993 9.9416 0 0 1-27.993 9.9416 27.993 9.9416 0 0 1-27.993-9.9416 27.993 9.9416 0 0 1 27.993-9.9416 27.993 9.9416 0 0 1 27.993 9.9416z" fill="#a8795c" stroke-width="1.2004"/>
<path d="m76.092 36.731c0 6.5977-2.1758 2.9716-9.0291 10.608-9.7919 10.911-29.051 0.01295-29.094-6.93-0.04101-6.5975 5.4195-15.625 17.055-15.625 11.636 1e-6 21.068 5.3485 21.068 11.946z" fill="#d2a78b" stroke-width=".32255"/>
<path d="m81.312 26.035c-0.43858 4.6765-11.263 7.1629-23.232 7.8132-12.648 0.68714-23.669-1.8617-21.853-4.0977 3.2796-4.0364 9.9097-6.4814 14.597-7.882 8.1853-2.4461 31.138-2.7706 30.488 4.1666z" fill="#c19071" stroke-width="1.0479"/>
<path d="m32.552 17.892a29.164 10.36 0 0 0-5.5216 6.0565 29.164 10.36 0 0 0 29.164 10.36 29.164 10.36 0 0 0 29.164-10.36 29.164 10.36 0 0 0-3.3951-4.8509 27.993 9.9416 0 0 1 2.3864 4.0158 27.993 9.9416 0 0 1-27.993 9.9415 27.993 9.9416 0 0 1-27.994-9.9415 27.993 9.9416 0 0 1 4.1894-5.2214z" fill="#cfa589"/>
</g>
</g>
</g>
</svg>
